<svg xmlns="http://www.w3.org/2000/svg" width="54.814" height="52.572" viewBox="0 0 54.814 52.572">
  <defs>
    <style>
      .cls-1 {
        fill: #fff;
      }
    </style>
  </defs>
  <g id="Grupo_1290" data-name="Grupo 1290" transform="translate(-64.15 -1056.761)">
    <path id="Caminho_1732" data-name="Caminho 1732" class="cls-1" d="M54.12,51.064,43.258,46.979,34,43.5,40.209,33.5a15.075,15.075,0,0,0-12.8-23.035A15.075,15.075,0,0,0,14.6,33.5L20.817,43.5l-6.856,2.579L.694,51.064a1.071,1.071,0,0,0,0,2L27.03,62.973a1.071,1.071,0,0,0,.754,0l11.982-4.507a1.071,1.071,0,1,0-.754-2L27.407,60.827l-23.3-8.761,10.6-3.988L21.97,45.35,26.5,52.631a1.071,1.071,0,0,0,1.818,0l4.528-7.282,9.66,3.633,8.2,3.083L47.427,53.3a1.071,1.071,0,1,0,.754,2l5.94-2.234a1.071,1.071,0,0,0,0-2ZM27.407,50.038,16.423,32.373A12.934,12.934,0,0,1,27.407,12.61,12.934,12.934,0,0,1,38.391,32.373Z" transform="translate(64.15 1046.292)"/>
    <circle id="Elipse_186" data-name="Elipse 186" class="cls-1" cx="1.071" cy="1.071" r="1.071" transform="translate(106.679 1101.102)"/>
    <path id="Caminho_1733" data-name="Caminho 1733" class="cls-1" d="M188.574,75.979a8.084,8.084,0,1,0,8.084,8.084A8.093,8.093,0,0,0,188.574,75.979Zm0,14.027a5.941,5.941,0,0,1-5.879-6.809,16.63,16.63,0,0,1,5.72,1.015,16.3,16.3,0,0,1,5.162,3.052A5.942,5.942,0,0,1,188.574,90.006Zm5.838-4.835a18.44,18.44,0,0,0-5.261-2.97,18.738,18.738,0,0,0-5.708-1.129,5.94,5.94,0,0,1,10.97,4.1Z" transform="translate(-97.017 987.795)"/>
  </g>
</svg>
