<svg xmlns="http://www.w3.org/2000/svg" width="46" height="45.916" viewBox="0 0 46 45.916">
  <defs>
    <style>
      .cls-1 {
        fill: #fff;
      }
    </style>
  </defs>
  <g id="Grupo_1337" data-name="Grupo 1337" transform="translate(-63 -2663)">
    <path id="Caminho_1699" data-name="Caminho 1699" class="cls-1" d="M44.655,18.007H34.261c0-.134.005-.268.005-.4A17.133,17.133,0,1,0,1.8,25.257L.572,32.423a1.345,1.345,0,0,0,1.687,1.523L8.27,32.268a17.046,17.046,0,0,0,3.586,1.638v5.145A1.345,1.345,0,0,0,13.2,40.4H31.716l3.071,5.319a1.345,1.345,0,0,0,2.329,0L40.186,40.4h4.469A1.345,1.345,0,0,0,46,39.051v-19.7a1.345,1.345,0,0,0-1.345-1.345ZM8.482,29.467a1.345,1.345,0,0,0-.362.05L3.581,30.784l.947-5.517a1.345,1.345,0,0,0-.14-.862A14.447,14.447,0,1,1,9.22,29.688a1.345,1.345,0,0,0-.738-.22Zm34.829,8.239h-3.9a1.345,1.345,0,0,0-1.165.672l-2.294,3.974-2.294-3.974a1.345,1.345,0,0,0-1.165-.672H14.545V34.539A17.129,17.129,0,0,0,33.985,20.7h9.325Z" transform="translate(63 2662.529)"/>
    <path id="Caminho_1700" data-name="Caminho 1700" class="cls-1" d="M90.879,146.633H106.4a1.345,1.345,0,0,0,0-2.689H90.879a1.345,1.345,0,0,0,0,2.689Z" transform="translate(-18.508 2531.918)"/>
    <path id="Caminho_1701" data-name="Caminho 1701" class="cls-1" d="M107.747,210.572a1.345,1.345,0,0,0-1.345-1.345H90.879a1.345,1.345,0,0,0,0,2.689H106.4A1.345,1.345,0,0,0,107.747,210.572Z" transform="translate(-18.508 2472.488)"/>
  </g>
</svg>
