<svg xmlns="http://www.w3.org/2000/svg" xmlns:xlink="http://www.w3.org/1999/xlink" width="130.065" height="142.691" viewBox="0 0 130.065 142.691">
  <defs>
    <style>
      .cls-1 {
        fill: #009dff;
      }

      .cls-2 {
        fill: #fff;
      }

      .cls-3 {
        filter: url(#Op_component_2);
      }

      .cls-4 {
        filter: url(#Op_component_1);
      }
    </style>
    <filter id="Op_component_1" x="0" y="0" width="130.065" height="129.427" filterUnits="userSpaceOnUse">
      <feOffset dy="3" input="SourceAlpha"/>
      <feGaussianBlur stdDeviation="3" result="blur"/>
      <feFlood flood-color="#9aa5ad" flood-opacity="0.122"/>
      <feComposite operator="in" in2="blur"/>
      <feComposite in="SourceGraphic"/>
    </filter>
    <filter id="Op_component_2" x="39.833" y="96.249" width="46.606" height="46.442" filterUnits="userSpaceOnUse">
      <feOffset dy="3" input="SourceAlpha"/>
      <feGaussianBlur stdDeviation="3" result="blur-2"/>
      <feFlood flood-color="#9aa5ad" flood-opacity="0.122"/>
      <feComposite operator="in" in2="blur-2"/>
      <feComposite in="SourceGraphic"/>
    </filter>
  </defs>
  <g id="Grupo_1282" data-name="Grupo 1282" transform="translate(-766 -691.827)">
    <g id="Grupo_1273" data-name="Grupo 1273">
      <g class="cls-4" transform="matrix(1, 0, 0, 1, 766, 691.83)">
        <rect id="Op_component_1-2" data-name="Op component 1" class="cls-1" width="112.065" height="111.427" rx="10" transform="translate(9 6)"/>
      </g>
      <g class="cls-3" transform="matrix(1, 0, 0, 1, 766, 691.83)">
        <path id="Op_component_2-2" data-name="Op component 2" class="cls-1" d="M8759.272,1476.917l10.565,10.505a3.7,3.7,0,0,1,0,5.252l-10.565,10.506a3.747,3.747,0,0,1-5.282,0l-10.566-10.506a3.693,3.693,0,0,1,0-5.252l10.566-10.505A3.746,3.746,0,0,1,8759.272,1476.917Z" transform="translate(-8693.49 -1373.58)"/>
      </g>
    </g>
    <path id="_004-woman" data-name="004-woman" class="cls-2" d="M119.747,54.728v6.089a1.031,1.031,0,1,1-2.062,0V54.728a8.573,8.573,0,0,0-8.578-8.578,6.408,6.408,0,0,1-2.358-.447L104.4,60.975a1.031,1.031,0,1,1-2.037-.314l2.487-16.14a6.421,6.421,0,0,1-1.183-1.427,1.031,1.031,0,1,1,1.761-1.073,4.294,4.294,0,0,0,3.684,2.068A10.634,10.634,0,0,1,119.747,54.728Zm-17.026-6.811a1.031,1.031,0,0,0-1.446-.184l-2.4,1.859-5.894-4.563-.079-.511A6.31,6.31,0,0,0,94.986,40.3a13.8,13.8,0,0,0,17.674-13.12c0-.023,0-7.188,0-7.211a1.033,1.033,0,0,0-.586-.929,9.343,9.343,0,0,1-6.187-5.507,1.031,1.031,0,0,0-1.778-.245,25.1,25.1,0,0,1-15.133,9.437,1.031,1.031,0,0,0,.2,2.042,27,27,0,0,0,15.537-8.952,11.217,11.217,0,0,0,5.885,4.9v6.354a11.729,11.729,0,1,1-23.451-.4,1.031,1.031,0,1,0-2.062,0c0,.053,0,.569,0,.62a13.807,13.807,0,0,0,7.858,12.229v.271a4.3,4.3,0,0,1-4.307,4.3,10.593,10.593,0,0,0-4.712,1.1V13.851a11.8,11.8,0,0,1,11.79-11.79h6.443a11.8,11.8,0,0,1,11.79,11.79v27.9a1.031,1.031,0,1,0,2.062,0v-27.9A13.867,13.867,0,0,0,102.159,0H95.716A13.867,13.867,0,0,0,81.865,13.851V46.524A10.586,10.586,0,0,0,78,54.728v6.089a1.031,1.031,0,0,0,2.062,0V54.728a8.578,8.578,0,0,1,8.578-8.578A6.373,6.373,0,0,0,91,45.7L93.35,60.974a1.031,1.031,0,1,0,2.037-.314L93.435,47.989l4.807,3.722a1.031,1.031,0,0,0,1.262,0l3.032-2.348a1.031,1.031,0,0,0,.184-1.446Z" transform="translate(732.001 722.858)"/>
  </g>
</svg>
