<svg id="Componente_21_2" data-name="Componente 21 – 2" xmlns="http://www.w3.org/2000/svg" width="366.24" height="132" viewBox="0 0 366.24 132">
  <defs>
    <style>
      .cls-1 {
        fill: #137d9b;
        font-size: 35px;
        font-family: FuturaBT-Medium, Futura;
        font-weight: 500;
      }

      .cls-2, .cls-3, .cls-6 {
        fill: none;
      }

      .cls-2 {
        stroke: #eb822d;
        stroke-width: 5px;
      }

      .cls-3 {
        stroke: #148b92;
        stroke-width: 2px;
      }

      .cls-4 {
        fill: #eb822d;
      }

      .cls-5 {
        stroke: none;
      }
    </style>
  </defs>
  <g id="Grupo_685" data-name="Grupo 685" transform="translate(-128 -3016)">
    <text id="Ferramentas" class="cls-1" transform="translate(293 3088)"><tspan x="0" y="0">Ferramentas</tspan></text>
    <line id="Linha_221" data-name="Linha 221" class="cls-2" x2="38.864" transform="translate(455.376 3109.538)"/>
  </g>
  <g id="Grupo_716" data-name="Grupo 716" transform="translate(-128 -6577)">
    <g id="Elipse_180" data-name="Elipse 180" class="cls-3" transform="translate(128 6577)">
      <circle class="cls-5" cx="66" cy="66" r="66"/>
      <circle class="cls-6" cx="66" cy="66" r="65"/>
    </g>
    <g id="_001-clipboard" data-name="001-clipboard" transform="translate(115.963 6604)">
      <g id="Grupo_715" data-name="Grupo 715" transform="translate(47.037 0)">
        <g id="Grupo_714" data-name="Grupo 714">
          <path id="Caminho_487" data-name="Caminho 487" class="cls-4" d="M100.534,10.223H93.475V7.065c0-1.022-1.114-1.486-2.136-1.486H85.86A8.308,8.308,0,0,0,77.594.006a8.452,8.452,0,0,0-8.266,5.573H63.941c-1.022,0-2.043.464-2.043,1.486v3.158H54.839a7.9,7.9,0,0,0-7.8,7.523V70.964c0,4.087,3.715,7.059,7.8,7.059h45.7c4.087,0,7.8-2.972,7.8-7.059V17.746A7.9,7.9,0,0,0,100.534,10.223ZM65.612,9.294h5.108a2.044,2.044,0,0,0,1.765-1.672,5.387,5.387,0,0,1,5.108-4.179,5.294,5.294,0,0,1,5.015,4.179,2.043,2.043,0,0,0,1.858,1.672h5.294v7.43H65.612Zm39.008,61.67c0,2.043-2.043,3.344-4.087,3.344h-45.7c-2.043,0-4.087-1.3-4.087-3.344V17.746a4.179,4.179,0,0,1,4.087-3.808H61.9v4.737a1.951,1.951,0,0,0,2.043,1.765h27.4a2.043,2.043,0,0,0,2.136-1.765V13.938h7.059a4.18,4.18,0,0,1,4.087,3.808V70.964Z" transform="translate(-47.037 0)"/>
          <path id="Caminho_488" data-name="Caminho 488" class="cls-4" d="M113.573,230.891a1.858,1.858,0,0,0-2.6-.093l-5.944,5.665-2.508-2.6a1.858,1.858,0,0,0-2.6-.093,1.95,1.95,0,0,0,0,2.693l3.808,3.9a1.672,1.672,0,0,0,1.3.557,1.857,1.857,0,0,0,1.3-.557l7.244-6.873A1.764,1.764,0,0,0,113.68,231Q113.63,230.942,113.573,230.891Z" transform="translate(-90.076 -189.369)"/>
          <path id="Caminho_489" data-name="Caminho 489" class="cls-4" d="M221.767,256.034H200.406a1.858,1.858,0,1,0,0,3.715h21.362a1.858,1.858,0,0,0,0-3.715Z" transform="translate(-171.614 -210.518)"/>
          <path id="Caminho_490" data-name="Caminho 490" class="cls-4" d="M113.573,147.3a1.857,1.857,0,0,0-2.6-.093l-5.944,5.665-2.508-2.6a1.857,1.857,0,0,0-2.6-.093,1.95,1.95,0,0,0,0,2.693l3.808,3.9a1.672,1.672,0,0,0,1.3.557,1.857,1.857,0,0,0,1.3-.557l7.244-6.873a1.764,1.764,0,0,0,.107-2.493Q113.63,147.35,113.573,147.3Z" transform="translate(-90.076 -120.637)"/>
          <path id="Caminho_491" data-name="Caminho 491" class="cls-4" d="M221.767,172.442H200.406a1.858,1.858,0,1,0,0,3.715h21.362a1.858,1.858,0,0,0,0-3.715Z" transform="translate(-171.614 -141.787)"/>
          <path id="Caminho_492" data-name="Caminho 492" class="cls-4" d="M113.573,314.482a1.858,1.858,0,0,0-2.6-.093l-5.944,5.665-2.508-2.6a1.858,1.858,0,0,0-2.6-.093,1.95,1.95,0,0,0,0,2.693l3.808,3.9a1.672,1.672,0,0,0,1.3.557,1.857,1.857,0,0,0,1.3-.557l7.244-6.873a1.764,1.764,0,0,0,.107-2.493Q113.63,314.533,113.573,314.482Z" transform="translate(-90.076 -258.1)"/>
          <path id="Caminho_493" data-name="Caminho 493" class="cls-4" d="M221.767,339.626H200.406a1.858,1.858,0,1,0,0,3.715h21.362a1.858,1.858,0,0,0,0-3.715Z" transform="translate(-171.614 -279.25)"/>
        </g>
      </g>
    </g>
  </g>
</svg>
