<svg id="Componente_24_2" data-name="Componente 24 – 2" xmlns="http://www.w3.org/2000/svg" width="537.238" height="617.593" viewBox="0 0 537.238 617.593">
  <defs>
    <style>
      .cls-1 {
        fill: #3e3e3e;
      }

      .cls-2 {
        fill: #919191;
      }

      .cls-3 {
        fill: #127a9c;
        font-size: 45px;
      }

      .cls-3, .cls-6 {
        font-family: Futura-Bold, Futura;
        font-weight: 700;
      }

      .cls-4 {
        fill: #eb822d;
      }

      .cls-5 {
        fill: none;
        stroke: #c3c3c3;
      }

      .cls-6 {
        fill: #18d6d4;
        font-size: 20px;
      }
    </style>
  </defs>
  <path id="P" class="cls-1" d="M11.5,23a11.121,11.121,0,0,1-8.121-3.378A11.117,11.117,0,0,1,0,11.5,11.122,11.122,0,0,1,3.378,3.378,11.122,11.122,0,0,1,11.5,0a11,11,0,0,1,8.1,3.4A11,11,0,0,1,23,11.5a11.118,11.118,0,0,1-3.378,8.122A11.122,11.122,0,0,1,11.5,23Zm0-21.467A9.645,9.645,0,0,0,4.456,4.456,9.642,9.642,0,0,0,1.533,11.5a9.642,9.642,0,0,0,2.923,7.044A9.645,9.645,0,0,0,11.5,21.467a9.636,9.636,0,0,0,7.043-2.923A9.639,9.639,0,0,0,21.467,11.5a9.639,9.639,0,0,0-2.924-7.044A9.636,9.636,0,0,0,11.5,1.533Zm0,16.867a.737.737,0,0,1-.766-.767V12.267H5.366a.767.767,0,1,1,0-1.535h5.367V5.367a.767.767,0,1,1,1.533,0v5.366h5.367a.767.767,0,1,1,0,1.535H12.266v5.366a.737.737,0,0,1-.767.767Z" transform="translate(513.463 225.297)"/>
  <path id="O" class="cls-2" d="M11.651,23.3a11.268,11.268,0,0,1-8.228-3.423A11.268,11.268,0,0,1,0,11.651a11.269,11.269,0,0,1,3.423-8.23A11.268,11.268,0,0,1,11.651,0a11.15,11.15,0,0,1,8.206,3.446,11.149,11.149,0,0,1,3.446,8.2,11.267,11.267,0,0,1-3.423,8.228A11.268,11.268,0,0,1,11.651,23.3Zm0-21.75A9.779,9.779,0,0,0,4.515,4.513a9.775,9.775,0,0,0-2.961,7.138,9.769,9.769,0,0,0,2.961,7.136,9.775,9.775,0,0,0,7.137,2.961,9.764,9.764,0,0,0,7.136-2.961,9.765,9.765,0,0,0,2.963-7.136,9.77,9.77,0,0,0-2.963-7.138A9.767,9.767,0,0,0,11.651,1.552Zm6.215,10.876H5.438a.778.778,0,1,1,0-1.555H17.866a.778.778,0,1,1,0,1.555Z" transform="translate(513.935 285.565)"/>
  <g id="Grupo_1070" data-name="Grupo 1070" transform="translate(-159.537 -7245.703)">
    <g id="Grupo_727" data-name="Grupo 727" transform="translate(0 18)">
      <text id="Gestão" class="cls-3" transform="translate(333 7325)"><tspan x="0" y="0">Gestão</tspan></text>
      <g id="_001-group" data-name="001-group" transform="translate(160.395 7227.703)">
        <path id="Caminho_360" data-name="Caminho 360" class="cls-4" d="M149.99,77.414V58a12.022,12.022,0,0,0-8.62-11.586L125.8,41.745V38.07a16.916,16.916,0,0,0,7.258-13.876v-7.26a16.934,16.934,0,1,0-33.869,0v7.258a16.909,16.909,0,0,0,7.258,13.876v3.675L92.721,45.861a27.957,27.957,0,0,0-36.871-.423l-12.3-3.693V38.07A16.916,16.916,0,0,0,50.8,24.194v-7.26a16.934,16.934,0,1,0-33.869,0v7.258a16.909,16.909,0,0,0,7.258,13.876v3.675L8.62,46.415A12.027,12.027,0,0,0,0,58V77.414H4.838V58a7.209,7.209,0,0,1,5.173-6.95l15.577-4.674A10.521,10.521,0,0,0,33.869,50.8a10.521,10.521,0,0,0,8.281-4.425l9.921,2.976a27.923,27.923,0,0,0-5.884,14.056A16.911,16.911,0,0,0,16.934,75v7.258a16.909,16.909,0,0,0,7.258,13.876V99.8L8.62,104.475A12.027,12.027,0,0,0,0,116.063v21.831H29.03a2.424,2.424,0,0,1,2.419,2.419v9.677H118.54v-9.677a2.424,2.424,0,0,1,2.419-2.419h29.03V116.063a12.022,12.022,0,0,0-8.62-11.586L125.8,99.806V96.131a16.916,16.916,0,0,0,7.258-13.876V75a16.92,16.92,0,0,0-29.03-11.83V60.874a13.009,13.009,0,0,0-6.648-11.353l10.463-3.141a9.962,9.962,0,0,0,16.561,0l15.579,4.674a7.21,7.21,0,0,1,5.17,6.95V77.414ZM33.869,4.838a12.11,12.11,0,0,1,12.1,12.1H34.87a5.88,5.88,0,0,1-4.13-1.71l-1.71-1.71-1.71,1.71a5.88,5.88,0,0,1-4.13,1.71H21.773A12.11,12.11,0,0,1,33.869,4.838Zm-12.1,19.354V21.773H23.19a10.594,10.594,0,0,0,5.84-1.734,10.594,10.594,0,0,0,5.84,1.734H45.965v2.419a12.1,12.1,0,1,1-24.192,0Zm12.1,21.773c-2.572,0-4.238-2.16-4.838-3.084V40.415a16.789,16.789,0,0,0,9.677,0v2.465C38.107,43.807,36.44,45.965,33.869,45.965Zm66.5,42.461a17.008,17.008,0,0,0,6.077,7.705v3.675l-15.57,4.672a11.88,11.88,0,0,0-1.5.571l-2.286-.527V99.755a19.455,19.455,0,0,0,5.874-7.934A12.048,12.048,0,0,0,100.367,88.426Zm-25.372,15.6a19.221,19.221,0,0,0,7.258-1.425v2.634l-7.258,5.443-7.258-5.443V102.6A19.221,19.221,0,0,0,74.995,104.025Zm-10.228,5.03,5.9,4.425L64.6,117.121l-1.534-7.671Zm7.555,19.162h5.346l1.882,16.934H70.44Zm5.767-4.838H71.9l-1.389-4.166,4.485-2.69,4.483,2.69Zm1.237-9.9,5.9-4.425,1.7.392-1.534,7.671ZM97.3,84.716a7.255,7.255,0,0,1-3.056,1.955,19.621,19.621,0,0,0,.1-2V73.1a7.3,7.3,0,0,1,4.8,6.015A7.216,7.216,0,0,1,97.3,84.716Zm-7.79-.044a14.515,14.515,0,1,1-29.03,0v-12.1h8.213a31.112,31.112,0,0,0,14.989-3.83l1.914,3.83H89.51Zm-33.765,2a7.153,7.153,0,0,1-.1-13.573V84.672A19.615,19.615,0,0,0,55.745,86.67Zm1.279,5.15A19.413,19.413,0,0,0,62.9,99.755v4.766l-2.286.527a12.521,12.521,0,0,0-1.5-.571L43.545,99.806V96.131a17.024,17.024,0,0,0,6.077-7.705A12.048,12.048,0,0,0,57.025,91.821ZM33.869,62.9A12.11,12.11,0,0,1,45.965,75H44.547a5.88,5.88,0,0,1-4.13-1.71l-1.71-1.71L37,73.285A5.88,5.88,0,0,1,32.867,75H21.773A12.11,12.11,0,0,1,33.869,62.9Zm-12.1,19.354V79.833H32.867a10.594,10.594,0,0,0,5.84-1.734,10.6,10.6,0,0,0,5.84,1.734h1.417v2.419a12.1,12.1,0,1,1-24.192,0Zm12.1,16.934a16.832,16.832,0,0,0,4.838-.713v2.465c-.6.928-2.267,3.087-4.838,3.087s-4.238-2.16-4.838-3.084V98.476A16.914,16.914,0,0,0,33.869,99.187ZM29.03,133.056H19.354V116.121H14.515v16.934H4.838V116.063a7.209,7.209,0,0,1,5.173-6.95l15.577-4.674a10.521,10.521,0,0,0,8.281,4.425,10.521,10.521,0,0,0,8.281-4.425l9.174,2.753-6.747,1.556a16.86,16.86,0,0,0-13.126,16.5v2.968h4.838v-2.968a12.044,12.044,0,0,1,9.377-11.786l12.682-2.927L61.2,124.8l5.062-3.036,1.432,4.3-2.119,19.092H53.222V125.8H48.384v19.354h-12.1v-4.838A7.267,7.267,0,0,0,29.03,133.056Zm110.948-23.943a7.209,7.209,0,0,1,5.173,6.95v16.992h-9.677V116.121h-4.838v16.934H120.96a7.267,7.267,0,0,0-7.258,7.258v4.838h-12.1V125.8H96.768v19.354H84.418L82.3,126.059l1.432-4.3,5.062,3.036,2.852-14.264,12.684,2.927a12.044,12.044,0,0,1,9.377,11.786v2.968h4.838v-2.968a16.86,16.86,0,0,0-13.126-16.5l-6.747-1.556,9.174-2.753a9.96,9.96,0,0,0,16.561,0Zm-19.019-8.172c-.6.926-2.267,3.084-4.838,3.084s-4.245-2.168-4.838-3.084V98.473a16.762,16.762,0,0,0,9.677,0Zm-4.838-6.593a12.11,12.11,0,0,1-12.1-12.1V79.833h1.417a10.6,10.6,0,0,0,5.84-1.734,10.594,10.594,0,0,0,5.84,1.734h11.094v2.419A12.11,12.11,0,0,1,116.121,94.349Zm0-31.45a12.11,12.11,0,0,1,12.1,12.1H117.123a5.88,5.88,0,0,1-4.13-1.71l-1.71-1.71-1.71,1.71a5.88,5.88,0,0,1-4.13,1.71h-1.417A12.11,12.11,0,0,1,116.121,62.9ZM99.187,70.362a12.709,12.709,0,0,0-7.673-2.625H88.586l-2.976-5.951-2.28,1.519a26.3,26.3,0,0,1-14.638,4.432H58.476A12.709,12.709,0,0,0,50.8,70.362V66.784A23.24,23.24,0,0,1,90.475,50.351l2.567,2.567.542.182a8.185,8.185,0,0,1,5.6,7.773ZM116.121,4.838a12.11,12.11,0,0,1,12.1,12.1H126.8a5.88,5.88,0,0,1-4.13-1.71l-1.71-1.71-1.71,1.71a5.88,5.88,0,0,1-4.13,1.71H104.025A12.11,12.11,0,0,1,116.121,4.838Zm-12.1,19.354V21.773h11.094a10.594,10.594,0,0,0,5.84-1.734,10.594,10.594,0,0,0,5.84,1.734h1.418v2.419a12.1,12.1,0,1,1-24.192,0Zm12.1,21.773c-2.576,0-4.245-2.168-4.838-3.084V40.413a16.762,16.762,0,0,0,9.677,0v2.465C120.359,43.807,118.693,45.965,116.121,45.965Zm0,0"/>
        <path id="Caminho_361" data-name="Caminho 361" class="cls-4" d="M184,0h4.754V4.754H184Zm0,0" transform="translate(-128.326)"/>
        <path id="Caminho_362" data-name="Caminho 362" class="cls-4" d="M184,32h4.754V58.148H184Zm0,0" transform="translate(-128.326 -22.492)"/>
        <path id="Caminho_363" data-name="Caminho 363" class="cls-4" d="M296,0h4.754V4.754H296Zm0,0" transform="translate(-206.438)"/>
        <path id="Caminho_364" data-name="Caminho 364" class="cls-4" d="M296,32h4.754V58.148H296Zm0,0" transform="translate(-206.438 -22.492)"/>
        <path id="Caminho_365" data-name="Caminho 365" class="cls-4" d="M216,32h4.754V48.64H216Zm0,0" transform="translate(-150.644 -22.492)"/>
        <path id="Caminho_366" data-name="Caminho 366" class="cls-4" d="M216,104h4.754v4.754H216Zm0,0" transform="translate(-150.644 -72.532)"/>
        <path id="Caminho_367" data-name="Caminho 367" class="cls-4" d="M264,32h4.754V48.64H264Zm0,0" transform="translate(-184.12 -22.492)"/>
        <path id="Caminho_368" data-name="Caminho 368" class="cls-4" d="M264,104h4.754v4.754H264Zm0,0" transform="translate(-184.12 -72.532)"/>
      </g>
    </g>
    <g id="Grupo_1069" data-name="Grupo 1069">
      <line id="Linha_209" data-name="Linha 209" class="cls-5" x2="413.88" transform="translate(160.776 7483.279)"/>
      <text id="Portal_do_Especialista" data-name="Portal do Especialista" class="cls-6" transform="translate(160 7527.834)"><tspan x="0" y="0">Portal do Especialista</tspan></text>
      <text id="Plantonistas" class="cls-6" transform="translate(160 7592.064)"><tspan x="0" y="0">Plantonistas</tspan></text>
      <text id="Painel_de_Auditorias" data-name="Painel de Auditorias" class="cls-6" transform="translate(160 7655.064)"><tspan x="0" y="0">Painel de Auditorias</tspan></text>
      <text id="Painel_de_Ouvidorias" data-name="Painel de Ouvidorias" class="cls-6" transform="translate(160 7718.064)"><tspan x="0" y="0">Painel de Ouvidorias</tspan></text>
      <text id="Gestão_de_Contratos" data-name="Gestão de Contratos" class="cls-6" transform="translate(160 7781.064)"><tspan x="0" y="0">Gestão de Contratos</tspan></text>
      <text id="Reserva_de_Sala" data-name="Reserva de Sala" class="cls-6" transform="translate(160 7844.064)"><tspan x="0" y="0">Reserva de Sala</tspan></text>
      <line id="Linha_212" data-name="Linha 212" class="cls-5" x2="413.88" transform="translate(160.776 7547.565)"/>
      <line id="Linha_259" data-name="Linha 259" class="cls-5" x2="413.88" transform="translate(160.776 7610.796)"/>
      <line id="Linha_275" data-name="Linha 275" class="cls-5" x2="413.88" transform="translate(160.776 7673.796)"/>
      <line id="Linha_276" data-name="Linha 276" class="cls-5" x2="413.88" transform="translate(160.776 7736.796)"/>
      <line id="Linha_277" data-name="Linha 277" class="cls-5" x2="413.88" transform="translate(160.776 7799.796)"/>
      <line id="Linha_278" data-name="Linha 278" class="cls-5" x2="413.88" transform="translate(160.776 7862.796)"/>
      <text id="Portal_RH" data-name="Portal RH" class="cls-6" transform="translate(159.537 7467.321)"><tspan x="0" y="0">Portal RH</tspan></text>
    </g>
  </g>
</svg>
