<svg xmlns="http://www.w3.org/2000/svg" width="21.015" height="21.015" viewBox="0 0 21.015 21.015">
  <defs>
    <style>
      .cls-1 {
        fill: #d0d1db;
      }
    </style>
  </defs>
  <g id="Grupo_1278" data-name="Grupo 1278" transform="translate(-1333.787 -62.165)">
    <path id="Caminho_1651" data-name="Caminho 1651" class="cls-1" d="M138.633,133.609a5.024,5.024,0,1,0,5.024,5.024A5.029,5.029,0,0,0,138.633,133.609Zm0,8.791a3.768,3.768,0,1,1,3.768-3.768A3.772,3.772,0,0,1,138.633,142.4Zm0,0" transform="translate(1205.662 -65.96)"/>
    <path id="Caminho_1652" data-name="Caminho 1652" class="cls-1" d="M20.521,8.115l-1.615-.351a8.79,8.79,0,0,0-.52-1.253l.894-1.391a.628.628,0,0,0-.084-.784L16.68,1.819a.628.628,0,0,0-.784-.084l-1.391.894a8.79,8.79,0,0,0-1.253-.52L12.9.494A.628.628,0,0,0,12.287,0H8.728a.628.628,0,0,0-.614.494L7.764,2.11a8.79,8.79,0,0,0-1.253.52L5.119,1.735a.628.628,0,0,0-.784.084L1.819,4.336a.628.628,0,0,0-.084.784L2.629,6.51a8.79,8.79,0,0,0-.52,1.253L.494,8.115A.628.628,0,0,0,0,8.728v3.558a.628.628,0,0,0,.494.614l1.615.351a8.79,8.79,0,0,0,.52,1.253L1.735,15.9a.628.628,0,0,0,.084.784L4.336,19.2a.628.628,0,0,0,.784.084l1.391-.894a8.79,8.79,0,0,0,1.253.52l.351,1.615a.628.628,0,0,0,.614.494h3.558a.628.628,0,0,0,.614-.494l.351-1.615a8.79,8.79,0,0,0,1.253-.52l1.391.894a.628.628,0,0,0,.784-.084L19.2,16.68a.628.628,0,0,0,.084-.784l-.894-1.391a8.79,8.79,0,0,0,.52-1.253l1.615-.351a.628.628,0,0,0,.494-.614V8.728A.628.628,0,0,0,20.521,8.115Zm-.761,3.666-1.481.322a.628.628,0,0,0-.472.445,7.535,7.535,0,0,1-.7,1.678.628.628,0,0,0,.019.648l.82,1.276-1.8,1.8-1.276-.82a.627.627,0,0,0-.648-.019,7.539,7.539,0,0,1-1.678.7.628.628,0,0,0-.445.472l-.322,1.481H9.235l-.322-1.481a.628.628,0,0,0-.445-.472,7.535,7.535,0,0,1-1.678-.7.628.628,0,0,0-.648.019l-1.276.82-1.8-1.8.82-1.276a.628.628,0,0,0,.019-.648,7.543,7.543,0,0,1-.7-1.678.628.628,0,0,0-.471-.445l-1.481-.322V9.235l1.481-.322a.628.628,0,0,0,.472-.445A7.534,7.534,0,0,1,3.9,6.79a.628.628,0,0,0-.019-.648l-.82-1.276,1.8-1.8,1.276.82A.627.627,0,0,0,6.79,3.9a7.539,7.539,0,0,1,1.678-.7.628.628,0,0,0,.445-.472l.322-1.481h2.546L12.1,2.737a.628.628,0,0,0,.445.472,7.534,7.534,0,0,1,1.678.7.628.628,0,0,0,.648-.019l1.276-.82,1.8,1.8-.82,1.276a.628.628,0,0,0-.019.648,7.535,7.535,0,0,1,.7,1.678.628.628,0,0,0,.471.445l1.481.322Zm0,0" transform="translate(1333.787 62.165)"/>
  </g>
</svg>
