<svg xmlns="http://www.w3.org/2000/svg" width="19.365" height="19.366" viewBox="0 0 19.365 19.366">
  <defs>
    <style>
      .cls-1 {
        fill: #d0d1db;
        stroke: rgba(0,0,0,0);
        stroke-miterlimit: 10;
      }
    </style>
  </defs>
  <path id="Subtração_1" data-name="Subtração 1" class="cls-1" d="M8603.563-519.634a.694.694,0,0,1-.555-.25l-4.9-4.9a7.364,7.364,0,0,1-4.68,1.645,7.189,7.189,0,0,1-5.254-2.181,7.192,7.192,0,0,1-2.179-5.252,7.194,7.194,0,0,1,2.179-5.254,7.189,7.189,0,0,1,5.254-2.179,7.188,7.188,0,0,1,5.252,2.179,7.191,7.191,0,0,1,2.181,5.254,7.386,7.386,0,0,1-1.646,4.682l4.9,4.893a.7.7,0,0,1,.25.555.781.781,0,0,1-.232.572A.781.781,0,0,1,8603.563-519.634Zm-10.13-17.223a6.088,6.088,0,0,0-4.448,1.842,6.087,6.087,0,0,0-1.84,4.448,6.094,6.094,0,0,0,1.84,4.448,6.088,6.088,0,0,0,4.448,1.84,6.094,6.094,0,0,0,4.448-1.84,6.094,6.094,0,0,0,1.84-4.448A6.059,6.059,0,0,0,8597.9-535,6.111,6.111,0,0,0,8593.434-536.858Z" transform="translate(-8585.501 538.5)"/>
</svg>
