<svg xmlns="http://www.w3.org/2000/svg" width="240" height="21" viewBox="0 0 240 21">
  <defs>
    <style>
      .cls-1, .cls-3 {
        fill: #fff;
      }

      .cls-1, .cls-2 {
        fill-rule: evenodd;
      }

      .cls-2 {
        fill: #ec660c;
      }

      .cls-3 {
        font-size: 18px;
        font-family: Futura Lt BT, Futura;
        font-weight: 300;
      }
    </style>
  </defs>
  <g id="Grupo_1275" data-name="Grupo 1275" transform="translate(-128 -17)">
    <g id="Grupo_1270" data-name="Grupo 1270">
      <path id="Caminho_1633" data-name="Caminho 1633" class="cls-1" d="M560.944,382.511h-6.9l-9.132,18.8h6.145l1.353-2.505h5.881l.445,2.505h6.062Zm-6.467,11.613,2.226-5.547.009-.024.844,5.57Z" transform="translate(-402.408 -364.116)"/>
      <path id="Caminho_1634" data-name="Caminho 1634" class="cls-1" d="M588.432,401.311l2.645-18.8h6.107l-2.645,18.8Z" transform="translate(-423.177 -364.116)"/>
      <path id="Caminho_1635" data-name="Caminho 1635" class="cls-1" d="M659.582,382.511h-6.9l-9.132,18.8h6.145l1.353-2.505h5.881l.445,2.505h6.062Zm-6.467,11.613,2.236-5.57.844,5.57Z" transform="translate(-449.478 -364.116)"/>
      <path id="Caminho_1636" data-name="Caminho 1636" class="cls-1" d="M617.725,401.656h7.653l5.243,8.685h-7.653l-5.243-8.685Z" transform="translate(-437.154 -373.252)"/>
      <path id="Caminho_1637" data-name="Caminho 1637" class="cls-2" d="M619.246,391.211h7.91l6.869-8.648h-7.91l-6.869,8.648Z" transform="translate(-437.881 -364.141)"/>
      <path id="Caminho_1638" data-name="Caminho 1638" class="cls-2" d="M604.117,410.379h7.91l6.869-8.754h-7.91l-6.869,8.754Z" transform="translate(-430.661 -373.237)"/>
      <path id="Caminho_1639" data-name="Caminho 1639" class="cls-1" d="M609.573,382.362h7.382l5.057,8.753H614.63l-5.057-8.753Z" transform="translate(-433.265 -364.045)"/>
      <path id="Caminho_1640" data-name="Caminho 1640" class="cls-1" d="M531.856,382.825l-.588,5.528c-2.251-3.105-7.468-.962-7.878,2.906-.521,4.91,4.5,6.055,7.233,3.164l-.589,5.541a13.136,13.136,0,0,1-2.4.922,9.794,9.794,0,0,1-2.346.339,9.108,9.108,0,0,1-2.664-.306,6.507,6.507,0,0,1-2.161-1.047,7.684,7.684,0,0,1-2.676-3.444,9.96,9.96,0,0,1-.543-4.746,11.638,11.638,0,0,1,1.077-3.886,11.273,11.273,0,0,1,2.343-3.2,9.963,9.963,0,0,1,3.077-2.089,9.709,9.709,0,0,1,3.615-.745,8.9,8.9,0,0,1,2.285.241,10.231,10.231,0,0,1,2.214.826Z" transform="translate(-389.173 -363.756)"/>
    </g>
    <text id="CIAUS_-_AM" data-name="CIAUS - AM" class="cls-3" transform="translate(256 34)"><tspan x="0" y="0">CIAUS - MN</tspan></text>
  </g>
</svg>
