<svg xmlns="http://www.w3.org/2000/svg" xmlns:xlink="http://www.w3.org/1999/xlink" width="130.065" height="142.691" viewBox="0 0 130.065 142.691">
  <defs>
    <style>
      .cls-1 {
        fill: #009dff;
      }

      .cls-2 {
        fill: #fff;
      }

      .cls-3 {
        filter: url(#Op_component_2);
      }

      .cls-4 {
        filter: url(#Op_component_1);
      }
    </style>
    <filter id="Op_component_1" x="0" y="0" width="130.065" height="129.427" filterUnits="userSpaceOnUse">
      <feOffset dy="3" input="SourceAlpha"/>
      <feGaussianBlur stdDeviation="3" result="blur"/>
      <feFlood flood-color="#9aa5ad" flood-opacity="0.122"/>
      <feComposite operator="in" in2="blur"/>
      <feComposite in="SourceGraphic"/>
    </filter>
    <filter id="Op_component_2" x="39.833" y="96.249" width="46.606" height="46.442" filterUnits="userSpaceOnUse">
      <feOffset dy="3" input="SourceAlpha"/>
      <feGaussianBlur stdDeviation="3" result="blur-2"/>
      <feFlood flood-color="#9aa5ad" flood-opacity="0.122"/>
      <feComposite operator="in" in2="blur-2"/>
      <feComposite in="SourceGraphic"/>
    </filter>
  </defs>
  <g id="Grupo_1281" data-name="Grupo 1281" transform="translate(-451.274 -691.827)">
    <g id="Grupo_1274" data-name="Grupo 1274">
      <g class="cls-4" transform="matrix(1, 0, 0, 1, 451.27, 691.83)">
        <rect id="Op_component_1-2" data-name="Op component 1" class="cls-1" width="112.065" height="111.427" rx="10" transform="translate(9 6)"/>
      </g>
      <g class="cls-3" transform="matrix(1, 0, 0, 1, 451.27, 691.83)">
        <path id="Op_component_2-2" data-name="Op component 2" class="cls-1" d="M8759.272,1476.917l10.565,10.505a3.7,3.7,0,0,1,0,5.252l-10.565,10.506a3.747,3.747,0,0,1-5.282,0l-10.566-10.506a3.693,3.693,0,0,1,0-5.252l10.566-10.505A3.746,3.746,0,0,1,8759.272,1476.917Z" transform="translate(-8693.49 -1373.58)"/>
      </g>
    </g>
    <path id="Caminho_1721" data-name="Caminho 1721" class="cls-2" d="M64.521,61.849h-30.8A2.721,2.721,0,0,1,31,59.131V13.8a2.721,2.721,0,0,1,2.718-2.718h5.208a.906.906,0,0,1,0,1.812H33.718a.907.907,0,0,0-.906.906V59.131a.907.907,0,0,0,.906.906h30.8a.907.907,0,0,0,.906-.906V38.051H44.59a2.721,2.721,0,0,1-2.718-2.718V2.718A2.721,2.721,0,0,1,44.59,0h27.18a2.721,2.721,0,0,1,2.718,2.718v9.06a.906.906,0,1,1-1.812,0V2.718a.907.907,0,0,0-.906-.906H44.59a.907.907,0,0,0-.906.906V35.333a.907.907,0,0,0,.906.906h27.18a.907.907,0,0,0,.906-.906V15.4a.906.906,0,0,1,.906-.906h5.436a.906.906,0,0,1,0,1.812h-4.53v3.624h4.53a.906.906,0,0,1,0,1.812h-4.53v3.624h4.53a.906.906,0,0,1,0,1.812h-4.53V30.8h4.53a.906.906,0,0,1,0,1.812h-4.53v2.718a2.707,2.707,0,0,1-.155.906h4.685a.906.906,0,0,1,0,1.812H67.239v3.624H79.017a.906.906,0,0,1,0,1.812H67.239v5.678h15.4a.907.907,0,0,0,.906-.906V8.359a.907.907,0,0,0-.906-.906H77.205a.906.906,0,0,1,0-1.812h5.436a2.721,2.721,0,0,1,2.718,2.718v39.9a2.721,2.721,0,0,1-2.718,2.718h-15.4v5.436h9.966a.907.907,0,0,0,.906-.906V53.695a.906.906,0,1,1,1.812,0v1.812a2.721,2.721,0,0,1-2.718,2.718H67.239v.906A2.721,2.721,0,0,1,64.521,61.849Zm5.436-27.421H46.4a.906.906,0,0,1-.906-.906V30.374c0-4.655,3.078-5.721,5.325-6.5,1.855-.642,2.908-1.074,3.094-2.469A7.577,7.577,0,0,1,50.6,15.144V11.408a7.579,7.579,0,0,1,15.158,0v3.736a7.577,7.577,0,0,1-3.314,6.262c.186,1.4,1.239,1.828,3.094,2.469,2.247.778,5.325,1.843,5.325,6.5v3.147a.906.906,0,0,1-.906.906Zm-22.65-1.812H69.051V30.374c0-3.365-1.9-4.024-4.106-4.786-1.627-.563-3.589-1.242-4.172-3.323a7.586,7.586,0,0,1-5.188,0c-.583,2.08-2.544,2.76-4.172,3.323-2.2.763-4.106,1.421-4.106,4.786ZM58.18,5.641a5.774,5.774,0,0,0-5.767,5.767v3.736a5.767,5.767,0,0,0,11.534,0V11.408A5.774,5.774,0,0,0,58.18,5.641Z" transform="translate(458.273 722.858)"/>
  </g>
</svg>
