<svg id="Grupo_1266" data-name="Grupo 1266" xmlns="http://www.w3.org/2000/svg" width="41.803" height="62.018" viewBox="0 0 41.803 62.018">
  <defs>
    <style>
      .cls-1 {
        fill: #127a9c;
      }
    </style>
  </defs>
  <path id="Caminho_1731" data-name="Caminho 1731" class="cls-1" d="M124.341,50.25a.909.909,0,0,0-.908.908V59.7a.5.5,0,0,1-.5.5h-4.884V42.311a.908.908,0,1,0-1.817,0V60.2H106.4l2.852-3.137a1.629,1.629,0,0,0,.393-1.307c0-.009,0-.018,0-.028l-2.716-16.046.732-1.1a2.06,2.06,0,0,0,1.3.564,1.591,1.591,0,0,0,1.424-.88h0l2.865-5.742,6.526,2.527a6.3,6.3,0,0,1,3.664,5.722v6.145a.908.908,0,1,0,1.817,0V40.774a8.108,8.108,0,0,0-4.795-7.4l-.017-.007-10.861-4.206V26.609a8.512,8.512,0,0,0,3.222-5.6,3.933,3.933,0,0,0,2.31-.942,3.857,3.857,0,0,0,.4-5.442V11.259a11.259,11.259,0,1,0-22.519,0v3.454a3.648,3.648,0,0,0-.937,2.432,3.85,3.85,0,0,0,1.34,2.923,3.93,3.93,0,0,0,2.309.942,8.422,8.422,0,0,0,3.406,5.734v2.413l-10.85,4.206-.017.007a8.108,8.108,0,0,0-4.795,7.4V59.7a2.321,2.321,0,0,0,2.319,2.319h8.656a.908.908,0,0,0,0-1.817H92.467V42.311a.908.908,0,1,0-1.817,0V60.2H85.766a.5.5,0,0,1-.5-.5V40.773a6.3,6.3,0,0,1,3.663-5.721l6.521-2.528,2.865,5.742a1.591,1.591,0,0,0,1.424.881,2.059,2.059,0,0,0,1.3-.564l.732,1.1L99.054,55.73c0,.009,0,.018,0,.027a1.629,1.629,0,0,0,.393,1.307l2.852,3.137H98.661a.908.908,0,1,0,0,1.817h24.27A2.321,2.321,0,0,0,125.25,59.7V51.158A.909.909,0,0,0,124.341,50.25Zm-12.8-18.384-2.671,5.353-3.212-2.281,3.3-4.072Zm-5.37,5.664-.693,1.043h-2.265l-.693-1.043,1.825-1.3Zm-5.245-8.081v-1.7a9.218,9.218,0,0,0,3.435.651,8.529,8.529,0,0,0,3.4-.708v1.764l-3.414,4.213Zm13.7-12.3a2.035,2.035,0,0,1-.707,1.545,2.116,2.116,0,0,1-1.049.483V15.117A2.055,2.055,0,0,1,114.63,17.145Zm-19,2.028a2.053,2.053,0,0,1-1.756-2.028,2.157,2.157,0,0,1,1.756-1.982Zm.049-5.861a4.492,4.492,0,0,0-.868.2V11.259a9.442,9.442,0,1,1,18.884,0v2.186a4.039,4.039,0,0,0-.819-.158c0-.877.008-.708-2.86-3.791a1.616,1.616,0,0,0-2.064-.252,17.515,17.515,0,0,1-10.589,2.85A1.615,1.615,0,0,0,95.677,13.312Zm1.768,6.576V13.921A19.414,19.414,0,0,0,108.8,10.859c1.315,1.412,2.027,2.153,2.257,2.435v6.594a6.807,6.807,0,0,1-13.612,0Zm2.376,17.331L97.15,31.865l2.579-1,3.3,4.073Zm1.042,18.708,2.63-15.536h1.7l2.63,15.536-3.482,3.83Z" transform="translate(-83.447)"/>
</svg>
