<svg xmlns="http://www.w3.org/2000/svg" width="104" height="105" viewBox="0 0 104 105">
  <defs>
    <style>
      .cls-1 {
        fill: #d2d3dc;
      }

      .cls-2 {
        fill: #fff;
      }
    </style>
  </defs>
  <g id="Grupo_1299" data-name="Grupo 1299" transform="translate(-489 -1767)">
    <ellipse id="Elipse_185" data-name="Elipse 185" class="cls-1" cx="52" cy="52.5" rx="52" ry="52.5" transform="translate(489 1767)"/>
    <path id="_001-user" data-name="001-user" class="cls-2" d="M50.748,45.748l-10.19-5.094A2.806,2.806,0,0,1,39,38.131V34.525c.244-.3.5-.639.767-1.014a24.412,24.412,0,0,0,3.151-6.186A4.232,4.232,0,0,0,45.4,23.467V19.2a4.254,4.254,0,0,0-1.067-2.8V10.726A9.562,9.562,0,0,0,42.1,3.766C39.911,1.267,36.356,0,31.533,0S23.156,1.267,20.965,3.765a9.564,9.564,0,0,0-2.231,6.961V16.4a4.254,4.254,0,0,0-1.067,2.8v4.267a4.242,4.242,0,0,0,1.6,3.316A22.387,22.387,0,0,0,23,34.5v3.53a2.819,2.819,0,0,1-1.469,2.475L12.015,45.7A9.619,9.619,0,0,0,7,54.146V57.6C7,62.662,23.048,64,31.533,64s24.533-1.338,24.533-6.4V54.354A9.571,9.571,0,0,0,50.748,45.748ZM53.933,57.6c0,1.447-7.906,4.267-22.4,4.267s-22.4-2.819-22.4-4.267V54.146a7.484,7.484,0,0,1,3.9-6.575l9.516-5.19a4.953,4.953,0,0,0,2.581-4.349V33.745l-.249-.3a20.138,20.138,0,0,1-3.637-7.536l-.1-.422-.364-.235a2.128,2.128,0,0,1-.987-1.789V19.2a2.105,2.105,0,0,1,.715-1.573l.352-.317V10.667l-.01-.14a7.407,7.407,0,0,1,1.712-5.356c1.767-2.016,4.784-3.038,8.964-3.038s7.175,1.014,8.945,3.017a7.508,7.508,0,0,1,1.731,5.377L42.2,17.31l.352.318a2.1,2.1,0,0,1,.715,1.572v4.267a2.121,2.121,0,0,1-1.517,2.026l-.531.163-.171.528a22.33,22.33,0,0,1-3.023,6.094,14.034,14.034,0,0,1-.893,1.151l-.266.3v4.4a4.926,4.926,0,0,0,2.737,4.43l10.19,5.094a7.448,7.448,0,0,1,4.14,6.7Z" transform="translate(509.267 1787.367)"/>
  </g>
</svg>
