<svg xmlns="http://www.w3.org/2000/svg" xmlns:xlink="http://www.w3.org/1999/xlink" width="130.065" height="142.692" viewBox="0 0 130.065 142.692">
  <defs>
    <style>
      .cls-1 {
        fill: #009dff;
      }

      .cls-2 {
        fill: #fff;
      }

      .cls-3 {
        filter: url(#Combined_Shape);
      }
    </style>
    <filter id="Combined_Shape" x="0" y="0" width="130.065" height="142.692" filterUnits="userSpaceOnUse">
      <feOffset dy="3" input="SourceAlpha"/>
      <feGaussianBlur stdDeviation="3" result="blur"/>
      <feFlood flood-color="#9aa5ad" flood-opacity="0.122"/>
      <feComposite operator="in" in2="blur"/>
      <feComposite in="SourceGraphic"/>
    </filter>
  </defs>
  <g id="Grupo_1280" data-name="Grupo 1280" transform="translate(-162 -691.826)">
    <g class="cls-3" transform="matrix(1, 0, 0, 1, 162, 691.83)">
      <path id="Combined_Shape-2" data-name="Combined Shape" class="cls-1" d="M51.5,123.6,40.928,113.1a3.7,3.7,0,0,1-.97-1.67H10a10,10,0,0,1-10-10V10A10,10,0,0,1,10,0h92.065a10,10,0,0,1,10,10v91.426a10,10,0,0,1-10,10H68.313a3.7,3.7,0,0,1-.97,1.67L56.777,123.6a3.746,3.746,0,0,1-5.282,0Z" transform="translate(9 6)"/>
    </g>
    <g id="Grupo_1279" data-name="Grupo 1279">
      <g id="Grupo_1269" data-name="Grupo 1269">
        <path id="XMLID_619_" class="cls-2" d="M180.284,10.88l3.371,2.438-1.289,3.939a2.774,2.774,0,0,0,4.272,3.1l3.347-2.443,3.347,2.443a2.732,2.732,0,0,0,3.266,0,2.732,2.732,0,0,0,1.006-3.107l-1.289-3.939,3.371-2.438a2.774,2.774,0,0,0-1.625-5.022H193.9l-1.273-3.937a2.774,2.774,0,0,0-5.279,0l-1.273,3.937h-4.163a2.774,2.774,0,0,0-1.626,5.022Zm6.816-2.2a1.412,1.412,0,0,0,1.344-.978l1.541-4.767L191.525,7.7a1.412,1.412,0,0,0,1.344.978H197.9l-4.08,2.951a1.413,1.413,0,0,0-.515,1.584l1.561,4.77-4.054-2.959a1.412,1.412,0,0,0-1.665,0L185.1,17.986l1.561-4.77a1.412,1.412,0,0,0-.515-1.584l-4.08-2.951H187.1Z" transform="translate(36.87 712.406)"/>
      </g>
      <g id="Grupo_1255" data-name="Grupo 1255" transform="translate(-31.085 -18)">
        <path id="XMLID_606_" class="cls-2" d="M62.574,193.965a7.126,7.126,0,0,0,1.471-4.343v-2.5a7.165,7.165,0,1,0-14.329,0v2.5a7.126,7.126,0,0,0,1.47,4.34H43.171a10.136,10.136,0,0,0,3.146-7.343v-6.5a10.167,10.167,0,1,0-20.334,0v6.5a10.136,10.136,0,0,0,3.146,7.343H21.113a7.127,7.127,0,0,0,1.47-4.34v-2.5a7.165,7.165,0,1,0-14.329,0v2.5a7.127,7.127,0,0,0,1.471,4.343A9.831,9.831,0,0,0,0,203.784v5.348a1.412,1.412,0,0,0,1.412,1.412h11.3v6.3a1.412,1.412,0,0,0,1.412,1.412h3.954a1.412,1.412,0,0,0,0-2.824H15.533v-6.88a11.774,11.774,0,0,1,10.832-11.72l7.675,18.6H30.783a1.412,1.412,0,0,0,0,2.824h27.4a1.412,1.412,0,0,0,1.412-1.412v-6.3h11.3a1.412,1.412,0,0,0,1.412-1.412v-5.348A9.831,9.831,0,0,0,62.574,193.965Zm-10.034-4.343v-2.5a4.34,4.34,0,1,1,8.681,0v2.5a4.34,4.34,0,1,1-8.681,0ZM36.15,172.774a7.351,7.351,0,0,1,7.343,7.343v.014h-.006a11.957,11.957,0,0,1-6.564-1.957,1.411,1.411,0,0,0-1.546,0,11.958,11.958,0,0,1-6.564,1.957h-.006v-.014A7.351,7.351,0,0,1,36.15,172.774ZM28.807,186.62v-3.664h.006a14.768,14.768,0,0,0,7.337-1.945,14.768,14.768,0,0,0,7.337,1.945h.006v3.664a7.343,7.343,0,1,1-14.686,0Zm-17.729.5a4.34,4.34,0,1,1,8.681,0v2.5a4.34,4.34,0,1,1-8.681,0Zm1.655,20.6H2.824v-3.936a7,7,0,0,1,7-7h8.858A14.579,14.579,0,0,0,12.733,207.719Zm16.692-10.932h5.313v3.389a1.412,1.412,0,1,0,2.824,0v-3.389H42.9l-6.746,16.35L29.4,196.787Zm27.342,18.64H38.26l7.675-18.6a11.773,11.773,0,0,1,10.832,11.72Zm12.709-7.708H59.567a14.579,14.579,0,0,0-5.945-10.932h8.858a7,7,0,0,1,7,7Z" transform="translate(222.085 584.455)"/>
        <path id="XMLID_620_" class="cls-2" d="M164.412,492a1.413,1.413,0,1,0,1,.414A1.422,1.422,0,0,0,164.412,492Z" transform="translate(81.81 307.882)"/>
      </g>
    </g>
  </g>
</svg>
