<svg xmlns="http://www.w3.org/2000/svg" xmlns:xlink="http://www.w3.org/1999/xlink" width="130.065" height="142.691" viewBox="0 0 130.065 142.691">
  <defs>
    <style>
      .cls-1 {
        fill: #009dff;
      }

      .cls-2 {
        fill: #fff;
      }

      .cls-3 {
        filter: url(#Op_component_2);
      }

      .cls-4 {
        filter: url(#Op_component_1);
      }
    </style>
    <filter id="Op_component_1" x="0" y="0" width="130.065" height="129.427" filterUnits="userSpaceOnUse">
      <feOffset dy="3" input="SourceAlpha"/>
      <feGaussianBlur stdDeviation="3" result="blur"/>
      <feFlood flood-color="#9aa5ad" flood-opacity="0.122"/>
      <feComposite operator="in" in2="blur"/>
      <feComposite in="SourceGraphic"/>
    </filter>
    <filter id="Op_component_2" x="39.833" y="96.249" width="46.606" height="46.442" filterUnits="userSpaceOnUse">
      <feOffset dy="3" input="SourceAlpha"/>
      <feGaussianBlur stdDeviation="3" result="blur-2"/>
      <feFlood flood-color="#9aa5ad" flood-opacity="0.122"/>
      <feComposite operator="in" in2="blur-2"/>
      <feComposite in="SourceGraphic"/>
    </filter>
  </defs>
  <g id="Grupo_1284" data-name="Grupo 1284" transform="translate(-1102.274 -691.827)">
    <g id="Grupo_1272" data-name="Grupo 1272">
      <g class="cls-4" transform="matrix(1, 0, 0, 1, 1102.27, 691.83)">
        <rect id="Op_component_1-2" data-name="Op component 1" class="cls-1" width="112.065" height="111.427" rx="10" transform="translate(9 6)"/>
      </g>
      <g class="cls-3" transform="matrix(1, 0, 0, 1, 1102.27, 691.83)">
        <path id="Op_component_2-2" data-name="Op component 2" class="cls-1" d="M8759.272,1476.917l10.565,10.505a3.7,3.7,0,0,1,0,5.252l-10.565,10.506a3.747,3.747,0,0,1-5.282,0l-10.566-10.506a3.693,3.693,0,0,1,0-5.252l10.566-10.505A3.746,3.746,0,0,1,8759.272,1476.917Z" transform="translate(-8693.49 -1373.58)"/>
      </g>
    </g>
    <g id="Grupo_1283" data-name="Grupo 1283">
      <path id="Caminho_1722" data-name="Caminho 1722" class="cls-2" d="M124.748,37.43h-9.459a.906.906,0,1,0,0,1.812h9.459a.906.906,0,1,0,0-1.812Z" transform="translate(1036.283 689.949)"/>
      <path id="Caminho_1723" data-name="Caminho 1723" class="cls-2" d="M53.827,39.242h2.757a.906.906,0,1,0,0-1.812H53.827a.906.906,0,1,0,0,1.812Z" transform="translate(1090.32 689.949)"/>
      <path id="Caminho_1724" data-name="Caminho 1724" class="cls-2" d="M53.827,75.2h9.459a.906.906,0,1,0,0-1.812H53.827a.906.906,0,1,0,0,1.812Z" transform="translate(1090.32 658.338)"/>
      <path id="Caminho_1725" data-name="Caminho 1725" class="cls-2" d="M173.527,73.384H170.77a.906.906,0,1,0,0,1.812h2.757a.906.906,0,0,0,0-1.812Z" transform="translate(987.504 658.338)"/>
      <path id="Caminho_1726" data-name="Caminho 1726" class="cls-2" d="M59.173,19.673a4.307,4.307,0,0,0-4.2,3.4H50.021a9.364,9.364,0,0,0-2.071-5.01l6.222-6.228a6.085,6.085,0,0,0,8.559-8.652,6.088,6.088,0,0,0-9.661,7.193l-.018.016L46.667,16.78a9.411,9.411,0,0,0-1.258-.872,9.3,9.3,0,0,0-10.555.872l-2.869-2.872a3.038,3.038,0,0,0,.5-1.666V3.055A3.058,3.058,0,0,0,29.427,0H8.865A3.058,3.058,0,0,0,5.812,3.055v9.187A3.058,3.058,0,0,0,8.865,15.3h7.14a.906.906,0,1,0,0-1.812H8.865a1.244,1.244,0,0,1-1.241-1.243V3.055A1.244,1.244,0,0,1,8.865,1.812H29.427a1.244,1.244,0,0,1,1.241,1.243v9.187a1.244,1.244,0,0,1-1.241,1.243H20.191a.906.906,0,1,0,0,1.812h9.236a3.034,3.034,0,0,0,1.157-.228l2.993,3A9.321,9.321,0,0,0,31.617,25.7L20.761,31.974h0a9.748,9.748,0,0,0-12.367-2.2,9.762,9.762,0,1,0,13.394,3.7l10.356-5.987a9.24,9.24,0,0,0,5.3,5.188V41.5a7.823,7.823,0,0,1-.058,1.033c-1.843-2.67-3.541-4.642-6.8-4.075a2.792,2.792,0,0,0-2.221,1.693A2.931,2.931,0,0,0,28.912,43l7.615,11.18a8.383,8.383,0,0,1,1.7,5.565,2.1,2.1,0,0,0,2.1,2.1H54.6a2.1,2.1,0,0,0,2.1-2.1v-3.7a4.791,4.791,0,0,1,.668-2.646,9.65,9.65,0,0,0,1.148-3.853.927.927,0,0,0,.005-.1v-3.1a.906.906,0,0,0-1.812,0V49.41a7.842,7.842,0,0,1-.953,3.171,6.561,6.561,0,0,0-.869,3.473v3.7a.292.292,0,0,1-.289.287H40.331a.292.292,0,0,1-.289-.287,10.149,10.149,0,0,0-2.017-6.584l-7.63-11.2-.033-.046a1.2,1.2,0,0,1-.308-1.115,1.038,1.038,0,0,1,.843-.56c2.092-.364,3.212.717,5.084,3.443.013.019.026.037.04.054.683.851,1.367,1.164,2.033.93.832-.293,1.2-1.27,1.2-3.17V24.188a1.509,1.509,0,1,1,3.006,0V39.813a.906.906,0,1,0,1.812,0v-7.25a1.476,1.476,0,0,1,1.5-1.644,1.639,1.639,0,0,1,.508.081q.041.017.083.031a1.5,1.5,0,0,1,.912,1.533v8.46a.906.906,0,1,0,1.812,0V34.616a1.509,1.509,0,1,1,3.006,0v7.617a.906.906,0,0,0,1.812,0V36.67a1.475,1.475,0,0,1,1.5-1.646,1.517,1.517,0,0,1,1.035.392,1.646,1.646,0,0,1,.468,1.254v5.5a.906.906,0,1,0,1.812,0v-5.5a3.277,3.277,0,0,0-3.314-3.458,3.406,3.406,0,0,0-1.62.408,3.234,3.234,0,0,0-3.2-2.46,3.411,3.411,0,0,0-1.622.408,3.208,3.208,0,0,0-.913-1.577,9.3,9.3,0,0,0,2.161-5.11H54.97a4.3,4.3,0,1,0,4.2-5.209ZM55.409,4.461h0a4.274,4.274,0,0,1,6.039,6.049,4.274,4.274,0,0,1-6.04-6.048ZM17.241,45.12h0A7.934,7.934,0,0,1,6.39,42.209,7.946,7.946,0,1,1,17.241,45.12ZM48.254,23.99a7.49,7.49,0,0,1-2.078,5.169,3.428,3.428,0,0,0-2.1.294V24.188a3.318,3.318,0,1,0-6.63,0V30.7a7.493,7.493,0,1,1,10.809-6.749c0,.007,0,.015,0,.022s0,.009,0,.014Zm10.919,2.473a2.489,2.489,0,1,1,2.484-2.488A2.491,2.491,0,0,1,59.173,26.464Z" transform="translate(1133.758 722.858)"/>
    </g>
  </g>
</svg>
