<svg xmlns="http://www.w3.org/2000/svg" width="119.186" height="26.637" viewBox="0 0 119.186 26.637">
  <defs>
    <style>
      .cls-1 {
        fill: #545871;
        font-size: 12px;
        font-family: FuturaBT-Book, Futura;
      }

      .cls-2 {
        fill: #00b260;
      }
    </style>
  </defs>
  <g id="Grupo_1325" data-name="Grupo 1325" transform="translate(-1092.814 -1843.9)">
    <text id="_00_0000-0000" data-name="(00) 0000-0000" class="cls-1" transform="translate(1126 1861)"><tspan x="0" y="0">(00) 0000-0000</tspan></text>
    <g id="Grupo_1265" data-name="Grupo 1265" transform="translate(1092.814 1843.9)">
      <path id="Caminho_1730" data-name="Caminho 1730" class="cls-2" d="M22.735,3.9a13.319,13.319,0,1,0,3.9,9.416A13.319,13.319,0,0,0,22.735,3.9ZM20.17,18.552l0,0v0l-.675.67a3.552,3.552,0,0,1-3.352.959,11.8,11.8,0,0,1-3.427-1.536,15.835,15.835,0,0,1-2.7-2.18,15.957,15.957,0,0,1-2.02-2.451A12.429,12.429,0,0,1,6.472,10.94,3.552,3.552,0,0,1,7.36,7.313l.79-.79a.564.564,0,0,1,.8,0l0,0,2.5,2.5a.564.564,0,0,1,0,.8l0,0L9.98,11.282a1.194,1.194,0,0,0-.124,1.554,17.134,17.134,0,0,0,1.754,2.047,17.029,17.029,0,0,0,2.309,1.94,1.2,1.2,0,0,0,1.536-.133l1.416-1.438a.564.564,0,0,1,.8,0l0,0,2.5,2.5A.564.564,0,0,1,20.17,18.552Z" transform="translate(0 0)"/>
    </g>
  </g>
</svg>
