<svg xmlns="http://www.w3.org/2000/svg" width="41" height="41" viewBox="0 0 41 41">
  <defs>
    <style>
      .cls-1 {
        fill: #fff;
      }
    </style>
  </defs>
  <path id="_001-share-link" data-name="001-share-link" class="cls-1" d="M41,20.74V34.594A6.413,6.413,0,0,1,34.594,41H6.406A6.413,6.413,0,0,1,0,34.594V6.406A6.413,6.413,0,0,1,6.406,0H20.34a1.6,1.6,0,0,1,0,3.2H6.406a3.207,3.207,0,0,0-3.2,3.2V34.594a3.207,3.207,0,0,0,3.2,3.2H34.594a3.207,3.207,0,0,0,3.2-3.2V20.74a1.6,1.6,0,0,1,3.2,0ZM21.875,14.877a1.65,1.65,0,0,0,.1.182c.121.187.4.615.724,1.054l-5.255,5.255a1.6,1.6,0,0,0,2.265,2.265l2.9-2.9c.069.126.135.252.2.375a4.231,4.231,0,0,1,.433,1.816c0,1.638-.936,3.448-2.709,5.236l-.148.128a1.622,1.622,0,0,0-.164.164l-.127.147c-1.789,1.773-3.6,2.709-5.236,2.709a4.318,4.318,0,0,1-2.55-.85c-.029-.026-.059-.051-.09-.074l-.156-.119a6.922,6.922,0,0,1-.68-.6A4.784,4.784,0,0,1,9.77,26.224c0-1.639.937-3.449,2.709-5.237l.148-.128a1.624,1.624,0,0,0,.162-.162l.128-.148a9.12,9.12,0,0,1,4.041-2.566,1.6,1.6,0,0,0-.762-3.111,12.249,12.249,0,0,0-5.582,3.451c-.028.028-.054.056-.079.085l-.092.106-.106.092c-.029.025-.058.052-.085.079-2.411,2.415-3.685,5.022-3.685,7.54a7.927,7.927,0,0,0,2.551,5.711,10.172,10.172,0,0,0,1,.874l.052.039a1.549,1.549,0,0,0,.144.119,7.548,7.548,0,0,0,4.548,1.546c2.517,0,5.124-1.274,7.54-3.685.028-.028.054-.057.08-.086l.091-.1.105-.091c.029-.026.058-.052.086-.08,2.411-2.415,3.685-5.022,3.685-7.54a7.409,7.409,0,0,0-.752-3.21l-.013-.026c-.113-.226-.388-.759-.726-1.3l5.168-5.168a1.6,1.6,0,1,0-2.265-2.265L25,13.815c-.1-.138-.19-.277-.277-.409a4.2,4.2,0,0,1-.4-1.739c0-1.638.937-3.448,2.709-5.236l.148-.128a1.584,1.584,0,0,0,.164-.164l.127-.147c1.79-1.772,3.6-2.709,5.237-2.709a4.317,4.317,0,0,1,2.55.851c.029.026.059.05.09.074l.155.119a7.034,7.034,0,0,1,.681.6A4.785,4.785,0,0,1,37.8,8.37c0,1.638-.937,3.448-2.709,5.236l-.148.128a1.591,1.591,0,0,0-.162.162l-.128.147a8.707,8.707,0,0,1-4.159,2.5,1.6,1.6,0,1,0,.678,3.13,11.85,11.85,0,0,0,5.784-3.407c.028-.027.054-.056.079-.085l.091-.106.106-.092c.029-.025.058-.052.085-.079C39.726,13.5,41,10.888,41,8.37a7.927,7.927,0,0,0-2.551-5.711,10.162,10.162,0,0,0-1-.874l-.052-.04a1.636,1.636,0,0,0-.144-.119A7.548,7.548,0,0,0,32.71.08c-2.516,0-5.123,1.274-7.54,3.685-.028.028-.054.056-.08.086L25,3.956l-.106.091c-.029.025-.058.052-.085.079-2.411,2.415-3.685,5.022-3.685,7.54A7.409,7.409,0,0,0,21.875,14.877Zm0,0"/>
</svg>
