<svg xmlns="http://www.w3.org/2000/svg" width="448.138" height="323.456" viewBox="0 0 448.138 323.456">
  <g id="Grupo_1" data-name="Grupo 1" transform="translate(-1499 -378)">
    <circle id="Elipse_28" data-name="Elipse 28" cx="6.5" cy="6.5" r="6.5" transform="matrix(0.985, 0.174, -0.174, 0.985, 1668.816, 422.165)" fill="#3ea677"/>
    <circle id="Elipse_29" data-name="Elipse 29" cx="6.5" cy="6.5" r="6.5" transform="matrix(0.985, 0.174, -0.174, 0.985, 1620.252, 428.433)" fill="#3ea677"/>
    <circle id="Elipse_30" data-name="Elipse 30" cx="6.5" cy="6.5" r="6.5" transform="matrix(0.985, 0.174, -0.174, 0.985, 1576.261, 459.236)" fill="#3ea677"/>
    <circle id="Elipse_31" data-name="Elipse 31" cx="6.5" cy="6.5" r="6.5" transform="matrix(0.985, 0.174, -0.174, 0.985, 1548.008, 501.712)" fill="#3ea677"/>
    <circle id="Elipse_32" data-name="Elipse 32" cx="6.5" cy="6.5" r="6.5" transform="matrix(0.985, 0.174, -0.174, 0.985, 1549.878, 558.398)" fill="#3ea677"/>
    <circle id="Elipse_33" data-name="Elipse 33" cx="6.5" cy="6.5" r="6.5" transform="matrix(0.985, 0.174, -0.174, 0.985, 1577.297, 604.759)" fill="#3ea677"/>
    <circle id="Elipse_34" data-name="Elipse 34" cx="6.5" cy="6.5" r="6.5" transform="matrix(0.985, 0.174, -0.174, 0.985, 1619.773, 633.011)" fill="#3ea677"/>
    <circle id="Elipse_35" data-name="Elipse 35" cx="6.5" cy="6.5" r="6.5" transform="matrix(0.985, 0.174, -0.174, 0.985, 1674.938, 639.772)" fill="#3ea677"/>
    <ellipse id="Elipse_38" data-name="Elipse 38" cx="10.045" cy="10.045" rx="10.045" ry="10.045" transform="matrix(0.985, 0.174, -0.174, 0.985, 1670.671, 378)" fill="#007dad"/>
    <ellipse id="Elipse_39" data-name="Elipse 39" cx="10.045" cy="10.045" rx="10.045" ry="10.045" transform="matrix(0.985, 0.174, -0.174, 0.985, 1595.203, 385.456)" fill="#007dad"/>
    <ellipse id="Elipse_23" data-name="Elipse 23" cx="10.045" cy="10.045" rx="10.045" ry="10.045" transform="matrix(0.985, 0.174, -0.174, 0.985, 1537.169, 428.613)" fill="#007dad"/>
    <ellipse id="Elipse_24" data-name="Elipse 24" cx="10.045" cy="10.045" rx="10.045" ry="10.045" transform="matrix(0.985, 0.174, -0.174, 0.985, 1502.489, 490.719)" fill="#007dad"/>
    <ellipse id="Elipse_40" data-name="Elipse 40" cx="10.045" cy="10.045" rx="10.045" ry="10.045" transform="matrix(0.985, 0.174, -0.174, 0.985, 1540.581, 627.946)" fill="#007dad"/>
    <ellipse id="Elipse_41" data-name="Elipse 41" cx="10.045" cy="10.045" rx="10.045" ry="10.045" transform="matrix(0.985, 0.174, -0.174, 0.985, 1674.097, 678.184)" fill="#007dad"/>
    <ellipse id="Elipse_43" data-name="Elipse 43" cx="10.045" cy="10.045" rx="10.045" ry="10.045" transform="matrix(0.985, 0.174, -0.174, 0.985, 1601.672, 668.38)" fill="#007dad"/>
    <ellipse id="Elipse_44" data-name="Elipse 44" cx="10.045" cy="10.045" rx="10.045" ry="10.045" transform="matrix(0.985, 0.174, -0.174, 0.985, 1504.191, 565.173)" fill="#007dad"/>
    <text id="GN_Atendimento_ao_Usuário_de_TI" data-name="GN
Atendimento
ao Usuário de TI" transform="translate(1612.138 509.641)" fill="#1274a0" font-size="46" font-family="FuturaBT-Medium, Futura" font-weight="500"><tspan x="0" y="0">GN</tspan><tspan fill="#ef6c35" font-family="FuturaBT-Book, Futura" font-weight="400"><tspan x="0" y="43">Atendimento</tspan><tspan x="0" y="86">ao Usuário de TI</tspan></tspan></text>
  </g>
</svg>
